<?xml version="1.0" encoding="utf-8"?>
<!-- Generator: Adobe Illustrator 19.0.0, SVG Export Plug-In . SVG Version: 6.00 Build 0)  -->
<svg version="1.1" id="Layer_1" xmlns="http://www.w3.org/2000/svg" xmlns:xlink="http://www.w3.org/1999/xlink" x="0px" y="0px"
	 viewBox="0 0 500 500" style="enable-background:new 0 0 500 500;" xml:space="preserve">
<style type="text/css">
	.st0{fill:#ffffff;}
</style>
<g>
	<path class="st0" d="M339.4,207.7c0.5-2.3,2.7-1.3,4.3-1.1c6.5,1.5,13.2,2.5,19.8,3.1c3.7,0.4,7.4,2.1,9.7,5
		c2.9,3.4,3.8,7.9,5.1,12c2.8,9.7,5.4,19.8,3.8,29.9c-1.3,7.4-3.2,14.8-5.5,22c-1.6,5-5.1,9.9-10.6,11c-6.3,1.1-12.8,1.4-19.1,2.8
		c-2.6,0.4-5.3,1.7-8,0.6c1.7-3,4.9-4.7,7-7.4c17.3-18.7,17.8-50.2,1.6-69.7C345.4,212.8,342.1,210.5,339.4,207.7z"/>
	<path class="st0" d="M428.2,206.6c1.5-0.1,4-1.3,4.3,1c-1.7,2.1-4,3.6-5.9,5.7c-16.9,17.7-18.8,47.4-4.8,67.4
		c2.6,4.2,6.5,7.5,10.1,10.9c0.9,0.6-0.1,3.1-1.4,2.1c-5.6-1.1-11.3-2.4-17-2.9c-4.3-0.6-9.1-0.5-12.7-3.4c-4.2-3.2-5.7-8.5-7-13.4
		c-2.4-8-4.4-16.3-4.7-24.7c0.6-9.5,3.3-18.7,6-27.8c1.6-5.2,5.4-10.5,11.2-11.3C413.7,209,421,208.4,428.2,206.6z"/>
	<path class="st0" d="M67.7,220.9c0-3.5-0.2-7,0.3-10.5c4.5,0.2,9,0.1,13.4,0.1c-0.2,8.6,0.1,17.2,0,25.8c8,0.1,16.1,0,24.1,0.1
		c0.2-8.6-0.1-17.2,0.1-25.9c4.5,0.1,9,0.1,13.6,0c-0.1,22.9,0,45.7,0.1,68.6c-4.5,0-9.1,0-13.6,0c-0.2-10.1,0.1-20.1-0.1-30.2
		c-8,0.1-16,0.1-24,0.1c0,10.1-0.3,20.1-0.1,30.2c-4.6-0.1-9.3,0-13.9-0.1C67.9,259.7,67.5,240.3,67.7,220.9z"/>
	<path class="st0" d="M209.3,210.4c4.3,0,8.6,0,12.9,0c0,22.8,0,45.6,0,68.4c-4.2,0-8.5,0-12.7,0.1
		C209.2,256.1,209.6,233.3,209.3,210.4z"/>
	<path class="st0" d="M194.2,228.5c3.3-1.8,7.2-1.2,10.6-0.2c0,4.2,0,8.5,0,12.7c-2.7-2.3-6.9-4.2-10.3-2c-4,2.6-4.1,7.9-4.6,12.1
		c-0.3,9.3,0,18.6-0.2,27.9c-4.3,0-8.6-0.1-13,0c0.1-16.9-0.3-33.8,0-50.6c3.7,0.1,7.4,0.1,11.2,0c0,2.2,0.1,4.4,0.3,6.5
		C189.8,232.4,191.4,229.7,194.2,228.5z"/>
	<path class="st0" d="M124.2,228.3c4.3,0.1,8.7,0,13,0c0.2,8.9-0.1,17.7,0.2,26.6c0.3,3.5,0.1,7.4,2.4,10.2
		c2.5,3.4,7.3,4.1,11.2,3.1c3.9-0.9,6.6-4.7,6.6-8.6c0.7-10.4,0.2-20.9,0.4-31.4c4.3,0.1,8.7,0.1,13.1,0c0,8.9-0.1,17.7-0.1,26.6
		c-0.1,6.1-0.9,12.8-5,17.7c-5.3,6.8-14.9,8.4-23,7.3c-5.4-0.6-10.7-3.1-13.9-7.5c-3.6-4.6-4.5-10.7-4.5-16.5
		C124.1,246.7,124.4,237.5,124.2,228.3z"/>
	<path class="st0" d="M279.3,228.3c4.5,0.2,9.1-0.1,13.6,0.3c4.3,10.6,8.9,21.2,13.7,31.7c5-10.6,10.2-21.2,15.1-31.9
		c4.5-0.1,8.9-0.2,13.4,0.2c-9.5,20.2-19.1,40.4-28.6,60.6c-4.4-0.1-8.9-0.1-13.3,0c2.1-4.6,4.1-9.2,6.2-13.7
		C292.7,259.7,285.5,244.2,279.3,228.3z"/>
	<path class="st0" d="M280.8,265.6c0.2-0.5,0.4-1,0.6-1.4c-4.7,0.3-9.5,0-14.2,0.3c-4.9,4.9-12.6,5.7-19,3.7
		c-4.9-1.5-8.2-6-9.2-10.9c14.4-0.2,28.8-0.1,43.2,0c0.6-8.4-2-17.4-8.4-23c-6.7-6.4-16.7-7.9-25.5-6.6c-8.7,1.6-16.6,7.7-19.8,16.1
		c-2.2,5.7-2.6,12.1-0.8,17.9c2.3,8.2,9.2,14.8,17.2,17.3c8.3,2.2,17.6,1.8,25.3-2.2c4.4-2.7,8-6.6,10.5-11L280.8,265.6z M252.9,238
		c6.8-0.9,13.8,2.8,16.4,9.2c-9.8,0.3-19.7,0.3-29.5,0C242.3,242.1,247.1,238,252.9,238z"/>
</g>
</svg>
